<?xml version="1.0" encoding="iso-8859-1"?>
<!-- Uploaded to: SVG Repo, www.svgrepo.com, Generator: SVG Repo Mixer Tools -->
<svg version="1.1" id="Layer_1" xmlns="http://www.w3.org/2000/svg" xmlns:xlink="http://www.w3.org/1999/xlink" 
	 viewBox="0 0 512 512" xml:space="preserve">
<polygon style="fill:#C4C9CA;" points="182.103,453.938 182.103,374.763 324.619,374.763 324.619,453.938 366.845,453.938 
	387.959,496.165 124.041,496.165 145.155,453.938 "/>
<g>
	<path style="fill:#E7ECED;" d="M409.072,95.01c17.524,0,31.67,14.146,31.67,31.67c0,4.856-1.056,9.501-3.167,13.618
		c-4.962,10.662-15.835,18.052-28.503,18.052c-11.824,0-22.064-6.44-27.447-15.941c-2.639-4.645-4.223-10.029-4.223-15.729
		C377.402,109.156,391.548,95.01,409.072,95.01z"/>
	<path style="fill:#E7ECED;" d="M325.674,174.291c2.639,4.645,4.223,10.029,4.223,15.729c0,17.524-14.146,31.67-31.67,31.67
		c-17.524,0-31.67-14.146-31.67-31.67c0-4.962,1.161-9.607,3.167-13.724c5.067-10.662,15.941-17.946,28.503-17.946
		C310.05,158.351,320.29,164.79,325.674,174.291z"/>
	<path style="fill:#E7ECED;" d="M148.533,146.105c-2.111-4.223-3.378-9.079-3.378-14.146c0-17.524,14.146-31.67,31.67-31.67
		s31.67,14.146,31.67,31.67c0,5.489-1.372,10.662-3.8,15.096c-5.384,9.923-15.835,16.574-27.87,16.574
		C164.368,163.629,153.706,156.556,148.533,146.105z"/>
</g>
<path style="fill:#AFB6BB;" d="M504.082,174.186v116.124H7.918v-73.897l140.615-70.308c5.173,10.451,15.835,17.524,28.292,17.524
	c12.035,0,22.486-6.651,27.87-16.574h3.8l61.229,29.242c-2.006,4.117-3.167,8.762-3.167,13.724c0,17.524,14.146,31.67,31.67,31.67
	c17.524,0,31.67-14.146,31.67-31.67c0-5.701-1.583-11.085-4.223-15.729l55.951-31.881c5.384,9.501,15.624,15.941,27.447,15.941
	c12.668,0,23.541-7.39,28.503-18.052l0.528,0.211L504.082,174.186z"/>
<path style="fill:#9DA4A9;" d="M266.557,190.021c0-4.962,1.161-9.607,3.167-13.724l-61.229-29.242h-3.8
	c-5.384,9.923-15.835,16.574-27.87,16.574c-12.457,0-23.119-7.073-28.292-17.524L7.918,216.412v73.897h98.857l160.312-95
	C266.797,193.581,266.557,191.833,266.557,190.021z"/>
<path style="fill:#36C63F;" d="M176.825,100.289c-17.524,0-31.67,14.146-31.67,31.67c0,5.067,1.267,9.923,3.378,14.146
	L7.918,216.412V15.835h496.165v158.351l-65.979-33.676l-0.528-0.211c2.111-4.117,3.167-8.762,3.167-13.618
	c0-17.524-14.146-31.67-31.67-31.67s-31.67,14.146-31.67,31.67c0,5.701,1.584,11.085,4.223,15.729l-55.951,31.881
	c-5.384-9.501-15.624-15.941-27.447-15.941c-12.562,0-23.436,7.284-28.503,17.946l-61.229-29.242h-3.8
	c2.428-4.434,3.8-9.607,3.8-15.096C208.495,114.435,194.349,100.289,176.825,100.289z"/>
<polygon style="fill:#595E62;" points="504.082,290.309 504.082,374.763 324.619,374.763 182.103,374.763 7.918,374.763 
	7.918,290.309 "/>
<rect x="182.103" y="374.763" style="fill:#E7ECED;" width="142.515" height="79.175"/>
<path d="M512,382.68V7.918H0V382.68h174.186v63.34h-33.924l-29.031,58.062h289.539l-29.031-58.062h-39.202v-63.34H512z
	 M15.835,221.305l129.85-64.925c7.376,9.501,18.724,15.166,31.14,15.166c12.559,0,24.212-5.924,31.617-15.743l51.413,24.554
	c-0.799,3.137-1.216,6.366-1.216,9.663c0,21.829,17.758,39.588,39.588,39.588s39.588-17.757,39.588-39.587
	c0-4.186-0.695-8.368-2.027-12.38l43.573-24.827c7.401,8.44,18.212,13.455,29.713,13.455c12.495,0,24.131-5.948,31.458-15.631
	l55.634,28.396v103.359H15.835V221.305z M153.072,131.959c0-13.097,10.655-23.753,23.753-23.753
	c13.098,0,23.753,10.656,23.753,23.753c0,4.01-0.978,7.915-2.842,11.321c-4.16,7.668-12.173,12.432-20.911,12.432
	c-9.069,0-17.191-5.027-21.196-13.119l-0.015-0.028C153.952,139.239,153.072,135.57,153.072,131.959z M321.979,190.021
	c0,13.097-10.656,23.753-23.753,23.753s-23.753-10.656-23.753-23.753c0-3.582,0.797-7.032,2.4-10.324
	c3.878-8.158,12.257-13.428,21.353-13.428c8.513,0,16.39,4.57,20.559,11.926l0.004,0.008
	C320.876,181.874,321.979,185.961,321.979,190.021z M385.32,126.68c0-13.097,10.656-23.753,23.753-23.753
	s23.753,10.656,23.753,23.753c0,3.671-0.772,7.036-2.295,10.007l-0.133,0.272c-3.809,8.186-12.179,13.475-21.325,13.475
	c-8.513,0-16.39-4.57-20.559-11.926l-0.004-0.008C386.423,134.827,385.32,130.741,385.32,126.68z M496.165,23.753v137.503
	l-48.714-24.864c0.794-3.102,1.209-6.344,1.209-9.711c0-21.829-17.758-39.588-39.588-39.588s-39.588,17.758-39.588,39.588
	c0,4.186,0.695,8.368,2.027,12.38l-43.573,24.827c-7.401-8.44-18.212-13.455-29.713-13.455c-12.484,0-24.16,5.979-31.504,15.658
	l-51.468-24.582c0.761-3.099,1.159-6.309,1.159-9.55c0-21.829-17.758-39.588-39.588-39.588s-39.588,17.758-39.588,39.588
	c0,3.437,0.486,6.89,1.395,10.245L15.835,203.602V23.753H496.165z M15.835,366.845v-68.619h480.33v68.619H15.835z M361.952,461.856
	l13.196,26.392H136.852l13.196-26.392h142.901v-15.835H190.021v-63.34h126.68v79.175H361.952z"/>
<polygon points="217.052,65.979 266.557,65.979 266.557,50.144 210.494,50.144 187.062,73.576 198.258,84.775 "/>
<g>
	<rect x="287.67" y="50.144" style="fill:#FFFFFF;" width="73.897" height="15.835"/>
	<rect x="287.67" y="81.814" style="fill:#FFFFFF;" width="58.062" height="15.835"/>
	<rect x="287.67" y="113.485" style="fill:#FFFFFF;" width="21.113" height="15.835"/>
	<rect x="208.495" y="324.619" style="fill:#FFFFFF;" width="95.01" height="15.835"/>
	<rect x="319.34" y="324.619" style="fill:#FFFFFF;" width="21.113" height="15.835"/>
	<rect x="171.546" y="324.619" style="fill:#FFFFFF;" width="21.113" height="15.835"/>
</g>
</svg>